<svg width="975" height="498" xmlns="http://www.w3.org/2000/svg" xmlns:xlink="http://www.w3.org/1999/xlink" overflow="hidden"><defs><clipPath id="clip0"><rect x="137" y="109" width="975" height="498"/></clipPath></defs><g clip-path="url(#clip0)" transform="translate(-137 -109)"><path d="M268 554 976 554 976 548 988 560 976 572 976 566 268 566Z" fill="#009999" fill-rule="evenodd"/><text font-family="Arial,Arial_MSFontService,sans-serif" font-weight="400" font-size="16" transform="translate(214.62 594)">Tight coupling<tspan font-size="16" x="317.679" y="0">medium coupling</tspan><tspan font-size="16" x="711.096" y="0">loose coupling</tspan></text><rect x="838.5" y="111.5" width="272" height="420" stroke="#000000" stroke-width="1.33333" stroke-miterlimit="8" fill="none"/><text font-family="Arial,Arial_MSFontService,sans-serif" font-weight="700" font-size="16" transform="translate(849.181 134)">Loosely coupled<tspan font-size="15" x="0" y="37">Knowledge</tspan><tspan font-weight="400" font-size="15" x="0" y="54">•</tspan><tspan font-weight="400" font-size="15" x="18" y="54">Control of domain logic: </tspan><tspan font-weight="400" font-size="15" x="18" y="72">distributed</tspan><tspan font-weight="400" font-size="15" x="0" y="89">•</tspan><tspan font-weight="400" font-size="15" x="18" y="89">Transaction: No transactions; only </tspan><tspan font-weight="400" font-size="15" x="18" y="107">compensating actions</tspan><tspan font-weight="400" font-size="15" x="0" y="125">•</tspan><tspan font-weight="400" font-size="15" x="18" y="125">Deployment / life cycle: decoupled </tspan><tspan font-weight="400" font-size="15" x="18" y="142">at different times</tspan><tspan font-size="15" x="0" y="195">Trust</tspan><tspan font-weight="400" font-size="15" x="0" y="213">•</tspan><tspan font-weight="400" font-size="15" x="18" y="213">Validation: Check of parameter </tspan><tspan font-weight="400" font-size="15" x="18" y="230">and results for every call.</tspan><tspan font-weight="400" font-size="15" x="0" y="248">•</tspan><tspan font-weight="400" font-size="15" x="18" y="248">Correct data is not expected</tspan></text><rect x="486.5" y="111.5" width="272" height="420" stroke="#000000" stroke-width="1.33333" stroke-miterlimit="8" fill="none"/><text font-family="Arial,Arial_MSFontService,sans-serif" font-weight="700" font-size="16" transform="translate(496.952 135)">Medium coupled<tspan font-size="15" x="0" y="37">Knowledge</tspan><tspan font-weight="400" font-size="15" x="0" y="54">•</tspan><tspan font-weight="400" font-size="15" x="18" y="54">Control of domain logic: central </tspan><tspan font-weight="400" font-size="15" x="18" y="72">per domain (bounded context)</tspan><tspan font-weight="400" font-size="15" x="0" y="89">•</tspan><tspan font-weight="400" font-size="15" x="18" y="89">Transaction: No transactions; only </tspan><tspan font-weight="400" font-size="15" x="18" y="107">compensating actions</tspan><tspan font-weight="400" font-size="15" x="0" y="125">•</tspan><tspan font-weight="400" font-size="15" x="18" y="125">Deployment / life cycle: decoupled </tspan><tspan font-weight="400" font-size="15" x="18" y="142">at different times</tspan><tspan font-size="15" x="0" y="177">Trust</tspan><tspan font-weight="400" font-size="15" x="0" y="195">•</tspan><tspan font-weight="400" font-size="15" x="18" y="195">Validation: Check of parameter </tspan><tspan font-weight="400" font-size="15" x="18" y="213">and results for every call.</tspan><tspan font-weight="400" font-size="15" x="0" y="230">•</tspan><tspan font-weight="400" font-size="15" x="18" y="230">Correct data is not expected</tspan></text><rect x="138.5" y="111.5" width="272" height="421" stroke="#000000" stroke-width="1.33333" stroke-miterlimit="8" fill="none"/><text font-family="Arial,Arial_MSFontService,sans-serif" font-weight="700" font-size="16" transform="translate(149.23 135)">Tightly coupled<tspan font-size="15" x="0" y="37">Knowledge</tspan><tspan font-weight="400" font-size="15" x="0" y="54">•</tspan><tspan font-weight="400" font-size="15" x="18" y="54">Control of domain logic: central</tspan><tspan font-weight="400" font-size="15" x="0" y="72">•</tspan><tspan font-weight="400" font-size="15" x="18" y="72">Transaction: two phase commit </tspan><tspan font-weight="400" font-size="15" x="18" y="89">(2PC)</tspan><tspan font-weight="400" font-size="15" x="0" y="107">•</tspan><tspan font-weight="400" font-size="15" x="18" y="107">Deployment / life cycle: together at </tspan><tspan font-weight="400" font-size="15" x="18" y="125">the same time</tspan><tspan font-size="15" x="0" y="177">Trust</tspan><tspan font-weight="400" font-size="15" x="0" y="195">•</tspan><tspan font-weight="400" font-size="15" x="18" y="195">Validation: Only at defined places </tspan><tspan font-weight="400" font-size="15" x="18" y="213">in code</tspan><tspan font-weight="400" font-size="15" x="0" y="230">•</tspan><tspan font-weight="400" font-size="15" x="18" y="230">Correct data is expected</tspan></text></g></svg>