<svg width="287" height="250" xmlns="http://www.w3.org/2000/svg" xmlns:xlink="http://www.w3.org/1999/xlink" overflow="hidden"><defs><clipPath id="clip0"><rect x="820" y="65" width="287" height="250"/></clipPath></defs><g clip-path="url(#clip0)" transform="translate(-820 -65)"><path d="M0.833333-9.01218e-07 0.833431 90.4121-0.833236 90.4121-0.833333 9.01218e-07ZM4.0001 89.0787 0.000104987 97.0787-3.9999 89.0787Z" fill="#009999" transform="matrix(1 0 0 -1 961 192.079)"/><path d="M0.589255-0.589256 84.8639 83.6853 83.6854 84.8638-0.589255 0.589256ZM86.1603 80.5034 88.9888 88.9887 80.5035 86.1602Z" fill="#009999" transform="matrix(-1 0 0 1 959.989 193)"/><path d="M961.589 191.411 1045.86 275.685 1044.69 276.864 960.411 192.589ZM1047.16 272.503 1049.99 280.989 1041.5 278.16Z" fill="#009999"/><path d="M934 220 961 170 988 220Z" fill="#009999" fill-rule="evenodd"/><path d="M890 263 961.039 122 1031 263Z" stroke="#009999" stroke-width="2" stroke-miterlimit="8" fill="none" fill-rule="evenodd"/><text font-family="Arial,Arial_MSFontService,sans-serif" font-weight="400" font-size="16" transform="translate(839.128 301)">Availability<tspan font-size="16" x="102.919" y="-214">Trust</tspan><tspan font-size="16" x="171.606" y="1">Knowledge</tspan></text></g></svg>