<svg width="975" height="498" xmlns="http://www.w3.org/2000/svg" xmlns:xlink="http://www.w3.org/1999/xlink" overflow="hidden"><defs><clipPath id="clip0"><rect x="137" y="109" width="975" height="498"/></clipPath></defs><g clip-path="url(#clip0)" transform="translate(-137 -109)"><path d="M268 554 976 554 976 548 988 560 976 572 976 566 268 566Z" fill="#009999" fill-rule="evenodd"/><text font-family="Arial,Arial_MSFontService,sans-serif" font-weight="400" font-size="16" transform="translate(214.62 594)">Tight coupling<tspan font-size="16" x="317.679" y="0">medium coupling</tspan><tspan font-size="16" x="711.096" y="0">loose coupling</tspan></text><rect x="838.5" y="111.5" width="272" height="420" stroke="#000000" stroke-width="1.33333" stroke-miterlimit="8" fill="none"/><text font-family="Arial,Arial_MSFontService,sans-serif" font-weight="700" font-size="16" transform="translate(849.181 134)">Loosely coupled<tspan font-size="15" x="0" y="37">Knowledge</tspan><tspan font-weight="400" font-size="15" x="0" y="54">•</tspan><tspan font-weight="400" font-size="15" x="18" y="54">Only consumer contract coupling</tspan><tspan font-weight="400" font-size="15" x="0" y="72">•</tspan><tspan font-weight="400" font-size="15" x="18" y="72">Client parses messages and </tspan><tspan font-weight="400" font-size="15" x="18" y="89">ignores unknown data</tspan><tspan font-size="15" x="0" y="125">Availability</tspan><tspan font-weight="400" font-size="15" x="0" y="142">•</tspan><tspan font-weight="400" font-size="15" x="18" y="142">Provider does not have to be </tspan><tspan font-weight="400" font-size="15" x="18" y="160">available (caching)</tspan><tspan font-weight="400" font-size="15" x="0" y="177">•</tspan><tspan font-weight="400" font-size="15" x="18" y="177">Async message or event based </tspan><tspan font-weight="400" font-size="15" x="18" y="195">communication only</tspan><tspan font-size="15" x="0" y="230">Trust</tspan><tspan font-weight="400" font-size="15" x="0" y="248">•</tspan><tspan font-weight="400" font-size="15" x="18" y="248">No trust. Validations regarding pre </tspan><tspan font-weight="400" font-size="15" x="18" y="265">and postconditions are always </tspan><tspan font-weight="400" font-size="15" x="18" y="283">checked</tspan></text><rect x="486.5" y="111.5" width="272" height="420" stroke="#000000" stroke-width="1.33333" stroke-miterlimit="8" fill="none"/><text font-family="Arial,Arial_MSFontService,sans-serif" font-weight="700" font-size="16" transform="translate(496.952 135)">Medium coupled<tspan font-size="15" x="0" y="37">Knowledge</tspan><tspan font-weight="400" font-size="15" x="0" y="54">•</tspan><tspan font-weight="400" font-size="15" x="18" y="54">Client knows the versioned </tspan><tspan font-weight="400" font-size="15" x="18" y="72">contract of the provider</tspan><tspan font-weight="400" font-size="15" x="0" y="89">•</tspan><tspan font-weight="400" font-size="15" x="18" y="89">Client uses an adapter to isolate </tspan><tspan font-weight="400" font-size="15" x="18" y="107">provider contract specific </tspan><tspan font-weight="400" font-size="15" x="18" y="125">dependencies</tspan><tspan font-weight="400" font-size="15" x="0" y="142">•</tspan><tspan font-weight="400" font-size="15" x="18" y="142">Consumer has no knowledge </tspan><tspan font-weight="400" font-size="15" x="18" y="160">about implementation or internal </tspan><tspan font-weight="400" font-size="15" x="18" y="177">data of the provider </tspan><tspan font-size="15" x="0" y="230">Availability</tspan><tspan font-weight="400" font-size="15" x="0" y="248">•</tspan><tspan font-weight="400" font-size="15" x="18" y="248">Provider must be available</tspan><tspan font-size="15" x="0" y="283">Trust</tspan><tspan font-weight="400" font-size="15" x="0" y="301">•</tspan><tspan font-weight="400" font-size="15" x="18" y="301">No trust. Validations regarding pre </tspan><tspan font-weight="400" font-size="15" x="18" y="318">and postconditions are always </tspan><tspan font-weight="400" font-size="15" x="18" y="336">checked</tspan></text><rect x="138.5" y="111.5" width="272" height="421" stroke="#000000" stroke-width="1.33333" stroke-miterlimit="8" fill="none"/><text font-family="Arial,Arial_MSFontService,sans-serif" font-weight="700" font-size="16" transform="translate(149.23 135)">Tightly coupled<tspan font-size="15" x="0" y="37">Knowledge</tspan><tspan font-weight="400" font-size="15" x="0" y="54">•</tspan><tspan font-weight="400" font-size="15" x="18" y="54">Provider API types directly used in </tspan><tspan font-weight="400" font-size="15" x="18" y="72">client implementation</tspan><tspan font-weight="400" font-size="15" x="0" y="89">•</tspan><tspan font-weight="400" font-size="15" x="18" y="89">Details about provider </tspan><tspan font-weight="400" font-size="15" x="18" y="107">implementation are known</tspan><tspan font-weight="400" font-size="15" x="0" y="125">•</tspan><tspan font-weight="400" font-size="15" x="18" y="125">Internal data structures of provider </tspan><tspan font-weight="400" font-size="15" x="18" y="142">are known</tspan><tspan font-weight="400" font-size="15" x="0" y="160">•</tspan><tspan font-weight="400" font-size="15" x="18" y="160">Change required in case provider </tspan><tspan font-weight="400" font-size="15" x="18" y="177">increases its capabilities</tspan><tspan font-weight="400" font-size="15" x="0" y="195">•</tspan><tspan font-weight="400" font-size="15" x="18" y="195">Client makes assumptions about </tspan><tspan font-weight="400" font-size="15" x="18" y="213">not explicitly defined behavior</tspan><tspan font-size="15" x="0" y="248">Availability</tspan><tspan font-weight="400" font-size="15" x="0" y="265">•</tspan><tspan font-weight="400" font-size="15" x="18" y="265">Provider must be available</tspan><tspan font-size="15" x="0" y="301">Trust</tspan><tspan font-weight="400" font-size="15" x="0" y="318">•</tspan><tspan font-weight="400" font-size="15" x="18" y="318">Full trust regarding validations, pre </tspan><tspan font-weight="400" font-size="15" x="18" y="336">and post conditions defined by the </tspan><tspan font-weight="400" font-size="15" x="18" y="353">provider</tspan></text></g></svg>