<svg width="975" height="498" xmlns="http://www.w3.org/2000/svg" xmlns:xlink="http://www.w3.org/1999/xlink" overflow="hidden"><defs><clipPath id="clip0"><rect x="137" y="109" width="975" height="498"/></clipPath></defs><g clip-path="url(#clip0)" transform="translate(-137 -109)"><path d="M268 554 976 554 976 548 988 560 976 572 976 566 268 566Z" fill="#009999" fill-rule="evenodd"/><text font-family="Arial,Arial_MSFontService,sans-serif" font-weight="400" font-size="16" transform="translate(214.62 594)">Tight coupling<tspan font-size="16" x="317.679" y="0">medium coupling</tspan><tspan font-size="16" x="711.096" y="0">loose coupling</tspan></text><rect x="838.5" y="111.5" width="272" height="420" stroke="#000000" stroke-width="1.33333" stroke-miterlimit="8" fill="none"/><text font-family="Arial,Arial_MSFontService,sans-serif" font-weight="700" font-size="16" transform="translate(849.181 134)">Loosely coupled<tspan font-size="15" x="0" y="37">Knowledge</tspan><tspan font-weight="400" font-size="15" x="0" y="54">•</tspan><tspan font-weight="400" font-size="15" x="18" y="54">SAAS </tspan><tspan font-weight="400" font-size="15" x="61.3333" y="54">–</tspan><tspan font-weight="400" font-size="15" x="73.5" y="54">Just use it!</tspan><tspan font-weight="400" font-size="15" x="0" y="72">•</tspan><tspan font-weight="400" font-size="15" x="18" y="72">Independent of product specific </tspan><tspan font-weight="400" font-size="15" x="18" y="89">platforms</tspan><tspan font-weight="400" font-size="15" x="0" y="107">•</tspan><tspan font-weight="400" font-size="15" x="18" y="107">Independent of technology </tspan><tspan font-weight="400" font-size="15" x="18" y="125">platforms of consumer</tspan><tspan font-weight="400" font-size="15" x="0" y="142">•</tspan><tspan font-weight="400" font-size="15" x="18" y="142">Interface is independent of </tspan><tspan font-weight="400" font-size="15" x="18" y="160">implementation technology of </tspan><tspan font-weight="400" font-size="15" x="18" y="177">provider </tspan><tspan font-weight="400" font-size="15" x="0" y="195">•</tspan><tspan font-weight="400" font-size="15" x="18" y="195">Dependent only on mediation / </tspan><tspan font-weight="400" font-size="15" x="18" y="213">interfacing technology</tspan></text><rect x="486.5" y="111.5" width="272" height="420" stroke="#000000" stroke-width="1.33333" stroke-miterlimit="8" fill="none"/><text font-family="Arial,Arial_MSFontService,sans-serif" font-weight="700" font-size="16" transform="translate(496.952 135)">Medium coupled<tspan font-size="15" x="0" y="37">Knowledge</tspan><tspan font-weight="400" font-size="15" x="0" y="54">•</tspan><tspan font-weight="400" font-size="15" x="18" y="54">Reusable within on technology </tspan><tspan font-weight="400" font-size="15" x="18" y="72">platform</tspan><tspan font-weight="400" font-size="15" x="0" y="89">•</tspan><tspan font-weight="400" font-size="15" x="18" y="89">Consumer and provider depend </tspan><tspan font-weight="400" font-size="15" x="18" y="107">on the same version of the same </tspan><tspan font-weight="400" font-size="15" x="18" y="125">technology platform</tspan><tspan font-weight="400" font-size="15" x="0" y="142">•</tspan><tspan font-weight="400" font-size="15" x="18" y="142">Specific versions of components </tspan><tspan font-weight="400" font-size="15" x="18" y="160">can be reused; provider uses </tspan><tspan font-weight="400" font-size="15" x="18" y="177">semantic versioning</tspan></text><rect x="138.5" y="111.5" width="272" height="421" stroke="#000000" stroke-width="1.33333" stroke-miterlimit="8" fill="none"/><text font-family="Arial,Arial_MSFontService,sans-serif" font-weight="700" font-size="16" transform="translate(149.23 135)">Tightly coupled<tspan font-size="15" x="0" y="37">Knowledge</tspan><tspan font-weight="400" font-size="15" x="0" y="54">•</tspan><tspan font-weight="400" font-size="15" x="18" y="54">Not reusable or only reusable </tspan><tspan font-weight="400" font-size="15" x="18" y="72">within one product</tspan><tspan font-weight="400" font-size="15" x="0" y="89">•</tspan><tspan font-weight="400" font-size="15" x="18" y="89">Consumer and provider depend </tspan><tspan font-weight="400" font-size="15" x="18" y="107">on the same product platform</tspan><tspan font-weight="400" font-size="15" x="0" y="125">•</tspan><tspan font-weight="400" font-size="15" x="18" y="125">Consumer and provider depend </tspan><tspan font-weight="400" font-size="15" x="18" y="142">on the same version of the same </tspan><tspan font-weight="400" font-size="15" x="18" y="160">technology platform</tspan><tspan font-weight="400" font-size="15" x="0" y="177">•</tspan><tspan font-weight="400" font-size="15" x="18" y="177">Consumer and provider have to </tspan><tspan font-weight="400" font-size="15" x="18" y="195">use the same version of the same </tspan><tspan font-weight="400" font-size="15" x="18" y="213">programming language (binary </tspan><tspan font-weight="400" font-size="15" x="18" y="230">compatibility)</tspan></text></g></svg>