<svg width="975" height="498" xmlns="http://www.w3.org/2000/svg" xmlns:xlink="http://www.w3.org/1999/xlink" overflow="hidden"><defs><clipPath id="clip0"><rect x="137" y="109" width="975" height="498"/></clipPath></defs><g clip-path="url(#clip0)" transform="translate(-137 -109)"><path d="M268 554 976 554 976 548 988 560 976 572 976 566 268 566Z" fill="#009999" fill-rule="evenodd"/><text font-family="Arial,Arial_MSFontService,sans-serif" font-weight="400" font-size="16" transform="translate(214.62 594)">Tight coupling<tspan font-size="16" x="317.679" y="0">medium coupling</tspan><tspan font-size="16" x="711.096" y="0">loose coupling</tspan></text><rect x="838.5" y="111.5" width="272" height="420" stroke="#000000" stroke-width="1.33333" stroke-miterlimit="8" fill="none"/><text font-family="Arial,Arial_MSFontService,sans-serif" font-weight="700" font-size="16" transform="translate(849.181 134)">Loosely coupled<tspan font-size="15" x="0" y="37">Knowledge</tspan><tspan font-weight="400" font-size="15" x="0" y="54">•</tspan><tspan font-weight="400" font-size="15" x="18" y="54">Async communication only</tspan><tspan font-weight="400" font-size="15" x="0" y="72">•</tspan><tspan font-weight="400" font-size="15" x="18" y="72">Message exchange patterns </tspan><tspan font-weight="400" font-size="15" x="18" y="89">(MEP): One</tspan><tspan font-weight="400" font-size="15" x="95.1666" y="89">-</tspan><tspan font-weight="400" font-size="15" x="100" y="89">way request, </tspan><tspan font-weight="400" font-size="15" x="18" y="107">notification, solicit</tspan><tspan font-weight="400" font-size="15" x="133" y="107">-</tspan><tspan font-weight="400" font-size="15" x="137.833" y="107">response </tspan><tspan font-weight="400" font-size="15" x="18" y="125">(request, notification as response)</tspan><tspan font-weight="400" font-size="15" x="0" y="142">•</tspan><tspan font-weight="400" font-size="15" x="18" y="142">Location transparency: via </tspan><tspan font-weight="400" font-size="15" x="18" y="160">mediator (location not known)</tspan><tspan font-weight="400" font-size="15" x="0" y="177">•</tspan><tspan font-weight="400" font-size="15" x="18" y="177">Type system: weak typing</tspan><tspan font-weight="400" font-size="15" x="0" y="195">•</tspan><tspan font-weight="400" font-size="15" x="18" y="195">Data: data centric messages</tspan><tspan font-weight="400" font-size="15" x="0" y="213">•</tspan><tspan font-weight="400" font-size="15" x="18" y="213">Course grained interfaces</tspan><tspan font-weight="400" font-size="15" x="0" y="230">•</tspan><tspan font-weight="400" font-size="15" x="18" y="230">Low number / frequency of calls </tspan><tspan font-weight="400" font-size="15" x="0" y="248">•</tspan><tspan font-weight="400" font-size="15" x="18" y="248">No callbacks; only notifications</tspan><tspan font-weight="400" font-size="15" x="0" y="265">•</tspan><tspan font-weight="400" font-size="15" x="18" y="265">Dynamic discovery and binding</tspan><tspan font-weight="400" font-size="15" x="0" y="283">•</tspan><tspan font-weight="400" font-size="15" x="18" y="283">Flow of traffic: dynamic</tspan><tspan font-weight="400" font-size="15" x="0" y="301">•</tspan><tspan font-weight="400" font-size="15" x="18" y="301">Idempotence</tspan><tspan font-size="15" x="0" y="336">Trust</tspan><tspan font-weight="400" font-size="15" x="0" y="353">•</tspan><tspan font-weight="400" font-size="15" x="18" y="353">No trust (availability, data)</tspan></text><rect x="486.5" y="111.5" width="272" height="420" stroke="#000000" stroke-width="1.33333" stroke-miterlimit="8" fill="none"/><text font-family="Arial,Arial_MSFontService,sans-serif" font-weight="700" font-size="16" transform="translate(496.952 135)">Medium coupled<tspan font-size="15" x="0" y="37">Knowledge</tspan><tspan font-weight="400" font-size="15" x="0" y="54">•</tspan><tspan font-weight="400" font-size="15" x="18" y="54">Sync / Async communication</tspan><tspan font-weight="400" font-size="15" x="0" y="72">•</tspan><tspan font-weight="400" font-size="15" x="18" y="72">Message exchange patterns </tspan><tspan font-weight="400" font-size="15" x="18" y="89">(MEP): all</tspan><tspan font-weight="400" font-size="15" x="0" y="107">•</tspan><tspan font-weight="400" font-size="15" x="18" y="107">Location transparency: via </tspan><tspan font-weight="400" font-size="15" x="18" y="125">configuration</tspan><tspan font-weight="400" font-size="15" x="0" y="142">•</tspan><tspan font-weight="400" font-size="15" x="18" y="142">Type system: defined external </tspan><tspan font-weight="400" font-size="15" x="18" y="160">interfaces (weak + strong  typing) </tspan><tspan font-weight="400" font-size="15" x="0" y="177">•</tspan><tspan font-weight="400" font-size="15" x="18" y="177">Data: data centric messages</tspan><tspan font-weight="400" font-size="15" x="0" y="195">•</tspan><tspan font-weight="400" font-size="15" x="18" y="195">Course grained interfaces</tspan><tspan font-weight="400" font-size="15" x="0" y="213">•</tspan><tspan font-weight="400" font-size="15" x="18" y="213">No callbacks; only notifications</tspan><tspan font-weight="400" font-size="15" x="0" y="230">•</tspan><tspan font-weight="400" font-size="15" x="18" y="230">Dynamic binding at design time</tspan><tspan font-weight="400" font-size="15" x="0" y="248">•</tspan><tspan font-weight="400" font-size="15" x="18" y="248">Flow of traffic: static</tspan><tspan font-weight="400" font-size="15" x="0" y="265">•</tspan><tspan font-weight="400" font-size="15" x="18" y="265">Idempotence</tspan><tspan font-size="15" x="0" y="301">Trust</tspan><tspan font-weight="400" font-size="15" x="0" y="318">•</tspan><tspan font-weight="400" font-size="15" x="18" y="318">Defined level of trust (data, </tspan><tspan font-weight="400" font-size="15" x="18" y="336">availability)</tspan></text><rect x="138.5" y="111.5" width="272" height="421" stroke="#000000" stroke-width="1.33333" stroke-miterlimit="8" fill="none"/><text font-family="Arial,Arial_MSFontService,sans-serif" font-weight="700" font-size="16" transform="translate(149.23 135)">Tightly coupled<tspan font-size="15" x="0" y="37">Knowledge</tspan><tspan font-weight="400" font-size="15" x="0" y="54">•</tspan><tspan font-weight="400" font-size="15" x="18" y="54">Synchronous communication</tspan><tspan font-weight="400" font-size="15" x="0" y="72">•</tspan><tspan font-weight="400" font-size="15" x="18" y="72">Request / Response message </tspan><tspan font-weight="400" font-size="15" x="18" y="89">exchange pattern (MEP)</tspan><tspan font-weight="400" font-size="15" x="0" y="107">•</tspan><tspan font-weight="400" font-size="15" x="18" y="107">Location transparency: location of </tspan><tspan font-weight="400" font-size="15" x="18" y="125">communication partner is known</tspan><tspan font-weight="400" font-size="15" x="0" y="142">•</tspan><tspan font-weight="400" font-size="15" x="18" y="142">Type system: strongly typed</tspan><tspan font-weight="400" font-size="15" x="0" y="160">•</tspan><tspan font-weight="400" font-size="15" x="18" y="160">Navigation of complex object trees</tspan><tspan font-weight="400" font-size="15" x="0" y="177">•</tspan><tspan font-weight="400" font-size="15" x="18" y="177">Fine</tspan><tspan font-weight="400" font-size="15" x="46.6667" y="177">-</tspan><tspan font-weight="400" font-size="15" x="51.5" y="177">grained “chatty” interfaces</tspan><tspan font-weight="400" font-size="15" x="0" y="195">•</tspan><tspan font-weight="400" font-size="15" x="18" y="195">High number / frequency of calls </tspan><tspan font-weight="400" font-size="15" x="0" y="213">•</tspan><tspan font-weight="400" font-size="15" x="18" y="213">Use of callbacks</tspan><tspan font-weight="400" font-size="15" x="0" y="230">•</tspan><tspan font-weight="400" font-size="15" x="18" y="230">Static discovery and binding</tspan><tspan font-weight="400" font-size="15" x="0" y="248">•</tspan><tspan font-weight="400" font-size="15" x="18" y="248">Flow of traffic: static</tspan><tspan font-size="15" x="0" y="283">Trust</tspan><tspan font-weight="400" font-size="15" x="0" y="301">•</tspan><tspan font-weight="400" font-size="15" x="18" y="301">Full Trust</tspan></text></g></svg>